<svg xmlns="http://www.w3.org/2000/svg" viewBox="0 0 24 24" fill="#4493f8"><path d="m8.595,23.692l-3.829-2.219c-.366-.209-.652-.492-.858-.85-.206-.358-.308-.749-.308-1.174v-4.396c0-.422.103-.812.308-1.172.206-.36.492-.644.858-.853l3.829-2.214c.367-.209.755-.313,1.166-.313s.8.104,1.166.313l3.829,2.214c.366.209.652.493.858.853.206.36.308.75.308,1.172v4.396c0,.425-.103.816-.308,1.174-.206.358-.492.641-.858.85l-3.829,2.219c-.367.206-.755.308-1.166.308s-.8-.103-1.166-.308Zm.129-2.664v-3.158l-2.792-1.641v3.199s2.792,1.6,2.792,1.6Zm2.106,0l2.76-1.6v-3.199l-2.76,1.641s0,3.158,0,3.158Zm-1.069-5.022l2.76-1.605-2.76-1.568-2.76,1.568,2.76,1.605Z"/></svg>