<svg xmlns="http://www.w3.org/2000/svg" viewBox="0 0 24 24" fill="#4493f8"><path d="m8.644,20.767c.329,0,.603-.108.822-.323.22-.215.33-.487.33-.816s-.108-.605-.323-.83c-.215-.225-.487-.337-.816-.337s-.603.112-.822.335c-.22.223-.33.499-.33.828s.108.602.323.819c.215.217.487.326.816.326Zm.006-3.123c.303,0,.557-.102.761-.306s.306-.458.306-.761v-2.025c0-.303-.102-.557-.306-.761s-.455-.306-.753-.306-.552.102-.761.306-.314.458-.314.761v2.025c0,.303.106.557.317.761.211.204.461.306.75.306Zm0,6.357c-.969,0-1.882-.181-2.738-.543-.856-.362-1.599-.858-2.23-1.489-.63-.63-1.127-1.374-1.489-2.23-.362-.856-.543-1.769-.543-2.738s.181-1.885.544-2.738c.363-.853.861-1.596,1.494-2.228.633-.632,1.376-1.129,2.23-1.491.853-.362,1.764-.543,2.732-.543s1.885.181,2.738.543c.854.362,1.596.859,2.228,1.491.632.632,1.129,1.375,1.491,2.229.362.854.543,1.767.543,2.739s-.181,1.884-.543,2.735c-.362.851-.859,1.593-1.491,2.226-.632.633-1.374,1.131-2.228,1.494-.853.363-1.766.544-2.738.544Zm-.004-2.135c1.368,0,2.522-.468,3.461-1.405.939-.937,1.408-2.089,1.408-3.457s-.468-2.522-1.405-3.461c-.937-.939-2.089-1.408-3.457-1.408s-2.522.468-3.461,1.405c-.939.937-1.408,2.089-1.408,3.457s.468,2.522,1.405,3.461c.937.939,2.089,1.408,3.457,1.408Z"/></svg>