<svg xmlns="http://www.w3.org/2000/svg" viewBox="0 0 24 24" fill="#4493f8"><path d="m16.707,17.004c0-1.106-.295-2.111-.886-3.015s-1.382-1.589-2.374-2.054c-.239-.113-.405-.289-.499-.528s-.097-.484-.009-.735c.088-.264.258-.455.509-.575s.496-.129.735-.028c1.369.616,2.462,1.545,3.279,2.789s1.225,2.626,1.225,4.146c0,1.508-.408,2.883-1.225,4.127s-1.91,2.173-3.279,2.789c-.239.113-.484.107-.735-.019s-.421-.32-.509-.584c-.088-.251-.085-.496.009-.735s.261-.415.499-.528c.992-.465,1.784-1.15,2.374-2.054s.886-1.903.886-2.996Zm-12.478,3.574h-2.205c-.364,0-.669-.126-.914-.377s-.367-.553-.367-.905v-4.551c0-.352.122-.653.367-.905s.55-.377.914-.377h2.205l4.657-2.302c.665-.31.886-.361,1.413-.141s.791.612.791,1.178v9.648c0,.565-.264.958-.791,1.178s-.858.093-1.413-.14l-4.657-2.306Zm10.612-3.555c0,.565-.129,1.096-.386,1.592s-.619.92-1.084,1.272c-.176.101-.349.101-.518,0s-.254-.251-.254-.452v-4.843c0-.214.085-.364.254-.452s.342-.082.518.019c.465.352.826.776,1.084,1.272s.386,1.027.386,1.592Zm-6.313-2.391l-3.244,1.395h-1.979v1.988h1.979l3.244,1.395v-4.778Z"/></svg>