<svg xmlns="http://www.w3.org/2000/svg" viewBox="0 0 24 24" fill="#4493f8"><path d="m18.89,24h-5.005c-.387,0-.7-.313-.7-.7v-2.2c0-.387.313-.7.7-.7h5.005c.387,0,.7.313.7.7v2.2c0,.387-.313.7-.7.7Zm-7.405,0h-4.66c-.387,0-.7-.313-.7-.7v-2.2c0-.387.313-.7.7-.7h4.66c.387,0,.7.313.7.7v2.2c0,.387-.313.7-.7.7Zm4.221-4.6H4.562c-.387,0-.7-.313-.7-.7v-2.2c0-.387.313-.7.7-.7h11.144c.387,0,.7.313.7.7v2.2c0,.387-.313.7-.7.7Zm-13.544,0H.7c-.387,0-.7-.313-.7-.7v-2.2c0-.387.313-.7.7-.7h1.462c.387,0,.7.313.7.7v2.2c0,.387-.313.7-.7.7Zm10.359-4.6h-2.779c-.387,0-.7-.313-.7-.7v-2.2c0-.387.313-.7.7-.7h2.779c.387,0,.7.313.7.7v2.2c0,.387-.313.7-.7.7Zm-5.179,0H.7c-.387,0-.7-.313-.7-.7v-2.2c0-.387.313-.7.7-.7h6.642c.387,0,.7.313.7.7v2.2c0,.387-.313.7-.7.7Z"/></svg>