<?xml version="1.0" encoding="UTF-8"?><svg id="Layer_1" xmlns="http://www.w3.org/2000/svg" viewBox="0 0 24 24"><path d="m9.069,12.889c-.894,0-1.653.313-2.277.939s-.936,1.385-.936,2.278c0,.513.115.997.345,1.452.23.455.553.835.968,1.142.328.241.618.524.87.851s.377.691.377,1.093v1.683c0,.459-.162.852-.485,1.181-.323.329-.714.493-1.173.493h-2.79c-.406,0-.748-.139-1.026-.416-.279-.277-.418-.617-.418-1.021s.139-.747.418-1.029c.279-.282.621-.423,1.026-.423h1.625c-.821-.585-1.464-1.313-1.929-2.183-.465-.87-.697-1.811-.697-2.823,0-1.687.596-3.126,1.787-4.318,1.191-1.192,2.63-1.788,4.317-1.788s3.126.596,4.318,1.788c1.193,1.192,1.789,2.631,1.789,4.318,0,1.001-.23,1.941-.689,2.819-.46.878-1.1,1.607-1.92,2.187h1.608c.406,0,.748.141,1.026.423.279.282.418.625.418,1.029s-.139.744-.418,1.021c-.279.277-.621.416-1.026.416h-2.757c-.474,0-.874-.164-1.201-.493-.326-.329-.49-.722-.49-1.181v-1.683c0-.402.126-.766.377-1.093.252-.327.542-.61.87-.851.416-.306.739-.687.968-1.142.23-.455.345-.939.345-1.452,0-.893-.313-1.652-.94-2.278-.627-.626-1.387-.939-2.281-.939Z" fill="#4493f8" stroke-width="0"/></svg>