<svg xmlns="http://www.w3.org/2000/svg" viewBox="0 0 24 24" fill="#4493f8"><path d="m4.15,17.675l3.4,3.4c.35.35.521.754.513,1.213s-.188.854-.538,1.188c-.333.35-.725.521-1.175.513s-.85-.179-1.2-.513L.525,18.875c-.17-.165-.3-.355-.39-.567-.09-.213-.135-.424-.135-.633,0-.226.045-.445.135-.658.09-.213.22-.401.39-.567l4.625-4.625c.333-.333.733-.5,1.2-.5s.867.167,1.2.5c.35.333.525.738.525,1.213s-.175.879-.525,1.213l-3.4,3.425Zm11.225-.025l-3.425-3.425c-.333-.333-.496-.729-.488-1.188s.179-.854.513-1.188c.35-.35.75-.521,1.2-.513s.842.179,1.175.513l4.625,4.6c.17.165.3.354.39.567.09.213.135.432.135.658,0,.21-.045.42-.135.633-.09.212-.22.401-.39.567l-4.625,4.625c-.339.333-.741.5-1.204.5s-.862-.167-1.196-.5c-.35-.333-.521-.738-.513-1.213s.179-.879.513-1.213l3.425-3.425Z"/></svg>