<?xml version="1.0" encoding="UTF-8"?><svg id="Layer_1" xmlns="http://www.w3.org/2000/svg" viewBox="0 0 24 24"><path d="m16.828,10.755c-.503-.504-1.12-.755-1.849-.755H3.105c-.729,0-1.346.252-1.849.755-.504.503-.755,1.12-.755,1.849v8.791c0,.729.252,1.346.755,1.849.504.504,1.12.755,1.849.755h11.874c.729,0,1.346-.252,1.849-.755.504-.504.755-1.12.755-1.849v-8.791c0-.729-.252-1.346-.755-1.849Zm-1.849,10.64H3.105v-8.791h11.874v8.791Zm-4.837-2.689l1.713-1.713-1.713-1.713c-.167-.167-.248-.365-.244-.594.004-.229.09-.427.256-.594.175-.175.375-.26.6-.256.225.004.421.09.588.256l2.313,2.301c.085.083.15.177.195.284.045.106.068.216.068.329,0,.105-.023.21-.068.317-.045.106-.11.201-.195.284l-2.313,2.313c-.17.167-.371.25-.602.25s-.431-.083-.598-.25c-.175-.167-.26-.369-.256-.606.004-.238.09-.44.256-.606Zm-5.909-1.384c-.045-.106-.068-.212-.068-.317,0-.113.023-.223.068-.329.045-.106.11-.201.195-.284l2.313-2.313c.167-.167.367-.25.6-.25s.433.083.6.25c.175.167.263.369.263.606s-.088.44-.263.606l-1.7,1.713,1.7,1.701c.175.175.26.377.256.606-.004.229-.094.427-.269.594-.167.175-.363.26-.588.256-.225-.004-.425-.09-.6-.256l-2.313-2.301c-.085-.083-.15-.177-.195-.284Z" fill="#4493f8" stroke-width="0"/></svg>