<svg xmlns="http://www.w3.org/2000/svg" viewBox="0 0 24 24" fill="#4493f8"><path d="m12.131,15.947c.334,0,.613-.112.838-.337s.337-.504.337-.838-.112-.613-.337-.838-.501-.337-.829-.337-.605.114-.829.341c-.225.228-.337.504-.337.829s.113.603.338.834c.225.23.499.346.82.346Zm-4.571,0c.328,0,.605-.114.829-.341.225-.228.337-.504.337-.829s-.113-.603-.338-.834-.499-.346-.82-.346c-.334,0-.613.112-.838.337s-.337.504-.337.838.112.613.337.838.501.337.829.337Zm2.29,4.355c.829,0,1.573-.242,2.229-.726s1.118-1.118,1.382-1.901h-7.224c.265.783.726,1.417,1.382,1.901s1.4.726,2.229.726Zm-.001,3.698c-1.036,0-2.009-.196-2.919-.588-.91-.392-1.705-.927-2.385-1.607s-1.215-1.475-1.607-2.386c-.392-.911-.588-1.885-.588-2.921s.196-2.009.588-2.919c.392-.91.927-1.705,1.607-2.385s1.475-1.215,2.386-1.607c.911-.392,1.885-.588,2.921-.588s2.009.196,2.919.588,1.705.927,2.385,1.607,1.215,1.475,1.607,2.386c.392.911.588,1.885.588,2.921s-.196,2.009-.588,2.919-.927,1.705-1.607,2.385-1.475,1.215-2.386,1.607c-.911.392-1.885.588-2.921.588Zm.001-2.177c1.475,0,2.73-.518,3.767-1.555s1.555-2.293,1.555-3.767-.518-2.73-1.555-3.767-2.293-1.555-3.767-1.555-2.73.518-3.767,1.555-1.555,2.293-1.555,3.767.518,2.73,1.555,3.767,2.293,1.555,3.767,1.555Z"/></svg>