<svg xmlns="http://www.w3.org/2000/svg" viewBox="0 0 24 24" fill="#4493f8"><path d="m14.267,24c-.907,0-1.576-.187-2.009-.561-.432-.374-.648-.921-.648-1.641,0-.98.406-1.6,1.218-1.862.812-.262,1.78-.392,2.905-.392h.529v-1.421c0-.485-.014-.907-.042-1.267s-.08-.665-.156-.914-.173-.433-.291-.55-.26-.177-.426-.177c-.138,0-.273.024-.405.073s-.232.107-.301.177c-.069.083-.114.174-.135.274-.021.1-.019.2.005.302.099.174.218.353.357.538.139.185.209.391.209.619,0,.407-.146.76-.438,1.059-.292.299-.647.449-1.064.449s-.773-.15-1.067-.451c-.294-.301-.441-.656-.441-1.066,0-.442.097-.807.292-1.095.195-.288.466-.516.814-.684.348-.168.749-.287,1.205-.357.455-.07.94-.105,1.454-.105,1.422,0,2.41.259,2.964.777.554.518.831,1.422.831,2.713v3.696c0,.318.041.55.123.696.082.145.21.218.383.218.189,0,.351-.154.487-.461.136-.307.222-.777.259-1.408h.264c-.055,1.052-.253,1.786-.592,2.201s-.914.623-1.725.623c-.726,0-1.297-.114-1.712-.343s-.678-.564-.789-1.007c-.149.503-.387.853-.713,1.052-.326.199-.774.298-1.345.298Zm1.224-.727c.219,0,.402-.173.55-.519.147-.346.221-.762.221-1.247v-1.681c-.443,0-.765.13-.966.39-.201.26-.301.684-.301,1.272v.263c0,.617.036,1.025.109,1.224s.202.298.387.298Zm-15.491.727v-8.947c0-2.736,2.218-4.953,4.953-4.953h0c2.736,0,4.953,2.218,4.953,4.953v8.947h-2.41l-.013-3.988H2.413l.013,3.988H0Zm2.413-6.434h5.081l.006-2.494c.003-1.406-1.135-2.547-2.541-2.547h0c-1.401,0-2.537,1.134-2.541,2.534l-.006,2.507Z"/></svg>