<svg xmlns="http://www.w3.org/2000/svg" viewBox="0 0 24 24" fill="#4493f8"><path d="m4.846,18.069h8.393c.705,0,1.293-.253,1.762-.758.469-.506.703-1.117.703-1.833s-.234-1.331-.703-1.843c-.469-.513-1.056-.769-1.762-.769h-3.238c-.388,0-.723-.137-1.007-.411s-.426-.611-.426-1.011.142-.741.426-1.022.619-.421,1.007-.421h3.234c1.491,0,2.753.534,3.785,1.601,1.032,1.067,1.549,2.353,1.549,3.855s-.517,2.792-1.551,3.866c-1.034,1.074-2.294,1.612-3.779,1.612H4.846l.674.653c.267.281.404.619.411,1.012s-.13.723-.411.99c-.278.281-.611.418-.999.411-.388-.007-.722-.144-1.003-.411l-3.076-3.076c-.14-.126-.249-.28-.327-.462-.077-.181-.116-.365-.116-.55,0-.19.039-.375.116-.553.077-.179.186-.338.327-.479l3.076-3.076c.285-.267.62-.4,1.004-.4s.71.137.977.411c.281.274.421.604.421.99s-.133.72-.4,1.001l-.674.674Z"/></svg>