<svg xmlns="http://www.w3.org/2000/svg" viewBox="0 0 24 24" fill="#4493f8"><path d="m10.5,12.625h-3.062c-.365,0-.674-.128-.93-.383s-.383-.565-.383-.93.128-.674.383-.93.565-.383.93-.383h8.75c.365,0,.674.128.93.383s.383.565.383.93-.128.674-.383.93-.565.383-.93.383h-3.062v10.062c0,.365-.128.674-.383.93s-.565.383-.93.383-.674-.128-.93-.383-.383-.565-.383-.93v-10.062Zm-7.875,4.375h-1.312c-.365,0-.674-.128-.93-.383s-.383-.565-.383-.93.128-.674.383-.93.565-.383.93-.383h5.25c.365,0,.674.128.93.383s.383.565.383.93-.128.674-.383.93-.565.383-.93.383h-1.312v5.688c0,.365-.128.674-.383.93s-.565.383-.93.383-.674-.128-.93-.383-.383-.565-.383-.93v-5.688Z"/></svg>