<svg xmlns="http://www.w3.org/2000/svg" viewBox="0 0 24 24" fill="#4493f8"><path d="m3.576,13.245l-.218-2.791c-.019-.246.171-.455.417-.455h11.408c.246,0,.436.208.455.455l-.218,2.791H3.576Zm.591,7.571l.1,1.275c.019.171.133.322.303.379l4.795,1.516c.076.019.171.019.265,0l4.795-1.516c.171-.057.284-.208.303-.379l.1-1.275H4.167Zm-2.071-1.446v-1.827h1.188v1.827h1.371v-4.678h-1.371v1.462h-1.188v-1.462H.725v4.678h1.371Zm5.665,0v-3.289h1.279v-1.389h-3.929v1.389h1.279v3.289h1.371Zm3.107,0v-3.289h.603v2.558h1.096v-2.558h.585v3.289h1.371v-3.801c0-.249-.082-.457-.247-.625-.165-.168-.369-.252-.612-.252h-3.289c-.249,0-.457.084-.625.252-.168.168-.252.376-.252.625v3.801h1.371Zm7.401,0v-1.389h-1.681v-3.289h-1.389v4.678h3.07Z"/></svg>