<svg xmlns="http://www.w3.org/2000/svg" viewBox="0 0 24 24" fill="#4493f8"><path d="m3.105,24c-.729,0-1.346-.252-1.849-.755s-.755-1.12-.755-1.849v-8.791c0-.729.252-1.346.755-1.849.504-.504,1.12-.755,1.849-.755h11.874c.729,0,1.346.252,1.849.755.504.503.755,1.12.755,1.849v8.791c0,.729-.252,1.346-.755,1.849-.503.504-1.12.755-1.849.755H3.105Zm0-2.605h11.874v-8.791H3.105v8.791Zm5.363-2.739l-1.226-1.609c-.136-.179-.308-.268-.514-.268s-.38.089-.52.268l-1.57,2.088c-.153.217-.169.444-.048.68.121.236.316.354.584.354h7.737c.268,0,.46-.118.575-.354.115-.236.096-.463-.057-.68l-2.126-2.873c-.14-.166-.313-.249-.517-.249s-.377.089-.517.268l-1.8,2.375Zm-2.172-2.81c.338,0,.628-.12.871-.359.243-.239.364-.53.364-.871s-.12-.631-.359-.867c-.239-.236-.53-.354-.871-.354s-.631.118-.867.355-.354.524-.354.862.118.628.355.871.524.364.862.364Zm-3.19,5.549v-8.791,8.791Z"/></svg>