<svg xmlns="http://www.w3.org/2000/svg" viewBox="0 0 24 24" fill="#4493f8"><path d="m7.296,23.498c-1.29.601-2.594.662-3.914.182-1.319-.48-2.28-1.365-2.881-2.654s-.662-2.594-.182-3.914c.48-1.32,1.365-2.281,2.655-2.882l1.942-.905c.339-.158.68-.174,1.023-.046.343.128.591.357.746.69s.171.671.049,1.015c-.122.344-.353.596-.693.754l-1.942.905c-.625.291-1.05.753-1.277,1.384-.227.632-.196,1.256.091,1.873s.746,1.042,1.376,1.274c.63.232,1.257.203,1.881-.088l1.942-.905c.339-.158.68-.174,1.023-.046.343.128.591.358.746.69s.171.67.049,1.015c-.122.344-.353.596-.693.754,0,0-1.942.905-1.942.905Zm-.24-4.274c-.291.136-.584.15-.879.042-.295-.107-.511-.307-.646-.597-.139-.298-.156-.592-.05-.882.105-.29.307-.504.605-.643l5.116-2.385c.291-.136.583-.151.876-.048.293.104.51.305.649.603.136.291.151.583.048.876-.104.293-.305.51-.603.649l-5.116,2.385Zm6.294,1.451c-.339.158-.68.174-1.023.046-.343-.128-.591-.357-.746-.69s-.171-.671-.049-1.015c.122-.344.353-.596.693-.754l1.942-.905c.625-.291,1.05-.753,1.277-1.384.227-.632.196-1.256-.091-1.873s-.746-1.042-1.376-1.274c-.63-.232-1.257-.203-1.881.088l-1.942.905c-.339.158-.68.174-1.023.046-.343-.128-.591-.358-.746-.69s-.171-.67-.049-1.015c.122-.344.353-.596.693-.754l1.942-.905c1.29-.601,2.594-.662,3.914-.182,1.319.48,2.28,1.365,2.881,2.654.601,1.289.662,2.594.182,3.914-.48,1.32-1.365,2.281-2.655,2.882,0,0-1.942.905-1.942.905Z"/></svg>