<svg xmlns="http://www.w3.org/2000/svg" viewBox="0 0 24 24" fill="#4493f8"><path d="m6.479,24c-.394,0-.728-.138-1.004-.414-.276-.276-.414-.611-.414-1.004s.138-.728.414-1.004.611-.414,1.004-.414h9.836c.394,0,.728.138,1.004.414.276.276.414.611.414,1.004s-.138.728-.414,1.004-.611.414-1.004.414H6.479Zm0-5.582c-.394,0-.728-.138-1.004-.414s-.414-.611-.414-1.004.138-.728.414-1.004c.276-.276.611-.414,1.004-.414h9.836c.394,0,.728.138,1.004.414.276.276.414.611.414,1.004s-.138.728-.414,1.004-.611.414-1.004.414H6.479Zm0-5.582c-.394,0-.728-.138-1.004-.414s-.414-.611-.414-1.004.138-.728.414-1.004c.276-.276.611-.414,1.004-.414h9.836c.394,0,.728.138,1.004.414.276.276.414.611.414,1.004s-.138.728-.414,1.004c-.276.276-.611.414-1.004.414,0,0-9.836,0-9.836,0Zm-5.061,0c-.394,0-.728-.138-1.004-.414s-.414-.611-.414-1.004.138-.728.414-1.004c.276-.276.611-.414,1.004-.414s.728.138,1.004.414.414.611.414,1.004-.138.728-.414,1.004-.611.414-1.004.414Zm0,5.582c-.394,0-.728-.138-1.004-.414s-.414-.611-.414-1.004.138-.728.414-1.004c.276-.276.611-.414,1.004-.414s.728.138,1.004.414c.276.276.414.611.414,1.004s-.138.728-.414,1.004-.611.414-1.004.414Zm0,5.582c-.394,0-.728-.138-1.004-.414s-.414-.611-.414-1.004.138-.728.414-1.004c.276-.276.611-.414,1.004-.414s.728.138,1.004.414.414.611.414,1.004-.138.728-.414,1.004-.611.414-1.004.414Z"/></svg>