<svg xmlns="http://www.w3.org/2000/svg" viewBox="0 0 24 24" fill="#4493f8"><path d="m11.383,23.806l-5.436-1.198-4.332,1.302c-.197.081-.388.107-.573.078-.185-.029-.359-.095-.521-.2-.15-.104-.275-.24-.373-.408s-.148-.356-.148-.564v-10.292c0-.289.084-.547.252-.772s.391-.385.668-.477l4.245-1.093c.127-.035.255-.067.382-.095s.26-.043.399-.043c.127,0,.255.012.382.035s.255.058.382.104l5.436,1.215,4.332-1.319c.197-.069.388-.093.573-.069s.359.087.521.191c.15.104.275.24.373.408s.148.356.148.564v10.292c0,.289-.081.547-.243.772s-.382.379-.66.46l-4.263,1.111c-.127.035-.255.067-.382.095s-.26.043-.399.043c-.127,0-.257-.012-.391-.035s-.257-.058-.373-.104Zm-.017-2.499v-7.689l-4.638-.937v7.706l4.638.92Zm1.562,0l2.805-.573v-7.827l-2.805.712v7.689Zm-10.567-.208l2.805-.712v-7.706l-2.805.59v7.827Zm10.567-7.48v7.689-7.689Zm-7.762-.937v7.706-7.706Z"/></svg>