<?xml version="1.0" encoding="UTF-8"?><svg id="Layer_1" xmlns="http://www.w3.org/2000/svg" viewBox="0 0 24 24"><path d="m5.105,23.952c-.525,0-1.003-.317-1.204-.811l-1.969-4.842h-.575c-.718,0-1.3-.582-1.3-1.3s.582-1.3,1.3-1.3h1.45c.529,0,1.005.32,1.204.811l.699,1.718,1.505-7.135c.127-.601.657-1.031,1.272-1.031h10.641c.718,0,1.3.582,1.3,1.3s-.582,1.3-1.3,1.3h-9.587l-2.165,10.259c-.118.559-.587.976-1.156,1.026-.039.003-.078.005-.116.005Zm12.495-.311c.547-.466.612-1.286.146-1.832l-6.021-7.064c-.465-.547-1.287-.613-1.833-.146-.546.466-.612,1.286-.146,1.832l6.021,7.064c.257.302.622.457.99.457.298,0,.598-.102.842-.311Zm-5.874-.146l6.021-7.064c.466-.546.4-1.366-.146-1.832-.546-.468-1.367-.4-1.832.146l-6.021,7.064c-.466.546-.4,1.366.146,1.832.245.209.544.311.843.311.368,0,.733-.155.99-.457Z" fill="#4493f8" stroke-width="0"/></svg>