<?xml version="1.0" encoding="UTF-8"?><svg id="Layer_1" xmlns="http://www.w3.org/2000/svg" viewBox="0 0 24 24"><path d="m2.629,16.155c0,.955.275,1.774.824,2.458.549.684,1.165,1.033,1.846,1.047h.021l.417.417c-.181-.195-.254-.41-.219-.647s.226-.535.574-.897c.278-.292.591-.438.939-.438s.661.139.939.417l1.523,1.544c.264.264.396.577.396.939s-.132.682-.396.96l-1.69,1.648c-.292.278-.615.41-.97.396s-.72-.216-1.095-.605c-.236-.223-.351-.476-.344-.761s.129-.539.365-.761l-.396.396c-1.433,0-2.684-.595-3.755-1.784-1.071-1.189-1.606-2.632-1.606-4.329s.549-3.147,1.648-4.35c1.099-1.203,2.412-1.805,3.94-1.805h2.528c.371,0,.682.127.935.382.253.254.379.573.379.954,0,.368-.123.679-.369.933-.246.254-.561.381-.946.381h-2.524c-.821,0-1.52.339-2.097,1.018-.577.679-.866,1.508-.866,2.487Zm10.139,3.505h3.875c.356,0,.662.127.917.382.255.254.382.573.382.954,0,.368-.123.679-.368.933-.246.254-.554.381-.924.381h-3.896c-.37,0-.683-.131-.938-.392-.255-.261-.382-.576-.382-.944,0-.382.131-.696.393-.943.262-.247.576-.37.941-.37Zm0-4.819h3.875c.356,0,.662.127.917.382.255.254.382.566.382.934,0,.382-.123.696-.368.943-.246.247-.554.37-.924.37h-3.896c-.37,0-.683-.127-.938-.382-.255-.254-.382-.573-.382-.954,0-.368.131-.675.393-.922.262-.247.576-.37.941-.37Zm0-4.84h3.855c.37,0,.683.127.938.382.255.254.382.573.382.954,0,.368-.123.679-.368.933-.246.254-.561.381-.945.381h-3.875c-.356,0-.666-.131-.927-.392-.262-.261-.393-.576-.393-.944,0-.382.131-.696.393-.943.262-.247.576-.37.941-.37Z" fill="#4493f8" stroke-width="0"/></svg>