<svg xmlns="http://www.w3.org/2000/svg" viewBox="0 0 24 24" fill="#4493f8"><path d="m2.813,21.972l1.537-2.633c-1.244-.083-2.28-.575-3.108-1.475-.828-.9-1.241-1.957-1.241-3.171,0-1.307.458-2.416,1.374-3.326.916-.911,2.028-1.366,3.334-1.366s2.416.455,3.326,1.366c.911.911,1.366,2.02,1.366,3.326,0,.427-.048.821-.144,1.183-.096.362-.234.703-.416,1.023l-3.705,6.425c-.123.207-.285.371-.487.493-.201.122-.425.183-.671.183-.515,0-.904-.225-1.167-.676-.263-.451-.263-.902.002-1.352Zm10.488.015l1.537-2.648c-1.244-.083-2.278-.575-3.1-1.475s-1.234-1.957-1.234-3.171c0-1.307.455-2.416,1.366-3.326.911-.911,2.02-1.366,3.326-1.366s2.418.455,3.334,1.366c.916.911,1.374,2.02,1.374,3.326,0,.427-.048.821-.144,1.183-.096.362-.235.703-.416,1.023l-3.72,6.425c-.123.207-.286.371-.487.493-.201.122-.425.183-.671.183-.515,0-.901-.223-1.16-.668-.258-.446-.26-.894-.006-1.345Zm-8.593-5.827c.408,0,.751-.143,1.032-.428.28-.286.42-.632.42-1.04s-.141-.754-.424-1.04c-.282-.285-.625-.428-1.028-.428-.408,0-.754.143-1.04.428-.285.286-.428.632-.428,1.04s.143.754.428,1.04c.285.285.632.428,1.04.428Zm10.488,0c.408,0,.754-.143,1.04-.428.285-.286.428-.632.428-1.04,0-.408-.143-.754-.428-1.04-.285-.285-.632-.428-1.04-.428s-.751.143-1.032.428c-.28.286-.42.632-.42,1.04s.141.754.424,1.04c.282.285.625.428,1.028.428Z"/></svg>