<svg xmlns="http://www.w3.org/2000/svg" viewBox="0 0 24 24" fill="#4493f8"><path d="m7.362,17.293l-.879-.864c-.19-.192-.417-.286-.681-.28-.264.005-.492.101-.684.288-.192.187-.288.412-.288.675s.096.485.288.667l1.516,1.531c.206.212.449.318.73.318s.523-.106.725-.318l3.229-3.229c.192-.19.286-.417.28-.681-.005-.264-.103-.492-.293-.684-.19-.192-.415-.288-.675-.288s-.485.096-.677.288l-2.592,2.577Zm-3.598,6.707c-.703,0-1.295-.241-1.777-.722-.481-.481-.722-1.074-.722-1.777v-9.002c0-.703.241-1.295.722-1.777.481-.481,1.074-.722,1.777-.722h9.002c.703,0,1.295.241,1.777.722.481.481.722,1.074.722,1.777v9.002c0,.703-.241,1.295-.722,1.777-.481.481-1.074.722-1.777.722H3.764Zm0-2.499h9.002v-9.002H3.764v9.002Zm0-9.002v9.002-9.002Z"/></svg>