<svg xmlns="http://www.w3.org/2000/svg" viewBox="0 0 50 32">
<path d="m33.303,18.905h-3.093v9.577h-1.658v-9.577h-3.085v-1.538h7.835v1.538Zm6.691,2.465c.672.736,1.013,1.765,1.013,3.056,0,1.268-.366,2.301-1.089,3.07-.726.773-1.709,1.165-2.922,1.165-1.183,0-2.143-.382-2.854-1.135-.708-.75-1.067-1.754-1.067-2.981,0-1.333.374-2.393,1.11-3.151.739-.759,1.745-1.144,2.99-1.144,1.194,0,2.142.377,2.819,1.12Zm-1.237,5.16c.393-.473.592-1.166.592-2.059,0-.903-.199-1.604-.593-2.084-.389-.473-.936-.703-1.671-.703s-1.292.24-1.715.733c-.424.495-.639,1.196-.639,2.084,0,.851.217,1.528.644,2.011.427.482.986.716,1.709.716.736,0,1.282-.228,1.672-.697Zm11.244-2.298c0,1.322-.329,2.398-.979,3.2-.66.815-1.572,1.229-2.711,1.229-.866,0-1.577-.309-2.122-.921v4.26h-1.628v-11.57h1.628v.95c.617-.75,1.447-1.129,2.473-1.129,1.044,0,1.874.37,2.464,1.102.58.719.874,1.687.874,2.88Zm-2.203-1.898c-.355-.437-.828-.65-1.442-.65-.657,0-1.17.22-1.567.675-.404.462-.6,1.029-.6,1.731v1.069c0,.586.184,1.067.562,1.472.374.403.838.598,1.418.598.681,0,1.198-.252,1.582-.77.393-.53.592-1.287.592-2.249,0-.799-.183-1.43-.546-1.875Z" fill="#e6e6e6"/>
<path d="m14.657,15.299c-.3-.3-.787-.3-1.088,0l-4.254,4.254c-.3.3-.3.787,0,1.088l.085.084c.3.3.787.3,1.088,0l2.797-2.797v9.725c0,.458.371.829.829.829s.829-.371.829-.829v-9.725l2.797,2.796c.3.3.787.3,1.088,0l.085-.084c.3-.3.3-.787,0-1.088l-4.254-4.254Z" fill="#8d96a0"/>
</svg>
