<svg xmlns="http://www.w3.org/2000/svg" viewBox="0 0 24 24" fill="#4493f8"><path d="m7.268,19.67l3.357-2.251c.153-.098.229-.237.229-.417s-.076-.321-.229-.422l-3.357-2.251c-.178-.114-.353-.125-.525-.03-.172.094-.258.244-.258.45v4.502c0,.206.086.356.258.45.172.094.347.084.525-.03Zm-4.528,4.33c-.762,0-1.409-.269-1.941-.807-.532-.538-.798-1.182-.798-1.932v-8.521c0-.75.266-1.394.798-1.932.532-.538,1.179-.807,1.941-.807h10.508c.762,0,1.409.269,1.941.807.532.538.798,1.182.798,1.932v2.661l2.808-2.796c.218-.227.467-.28.747-.159.28.12.42.331.42.633v7.843c0,.302-.14.513-.42.633-.28.12-.529.067-.747-.159l-2.808-2.796v2.661c0,.75-.266,1.394-.798,1.932-.532.538-1.179.807-1.941.807,0,0-10.508,0-10.508,0Zm0-2.74h10.508v-8.521H2.74s0,8.521,0,8.521Zm0,0v-8.521s0,8.521,0,8.521Z"/></svg>